<?xml version="1.0" encoding="utf-8"?>
<!-- Generator: Adobe Illustrator 21.0.0, SVG Export Plug-In . SVG Version: 6.00 Build 0)  -->
<svg version="1.1" id="Layer_1" xmlns="http://www.w3.org/2000/svg" xmlns:xlink="http://www.w3.org/1999/xlink" x="0px" y="0px"
	 viewBox="0 0 2366 512" style="enable-background:new 0 0 2366 512;" xml:space="preserve">
<style type="text/css">
	.st0{display:none;fill:#FFC943;}
	.st1{fill:#C60034;}
	.st2{fill:#0B9CCC;}
	.st3{fill:#00C692;}
	.st4{fill:#FF8943;}
	.st5{fill:#222221;}
</style>
<rect x="-791" class="st0" width="512" height="512"/>
<g>
	<path class="st1" d="M145.9,479.4H35.8c-0.9,0-1.7-0.8-1.7-1.7v-446c0-0.9,0.8-1.7,1.7-1.7h110.1c0.9,0,1.7,0.8,1.7,1.7v446
		C147.6,478.7,146.9,479.4,145.9,479.4z"/>
	<path class="st2" d="M344.6,479.4h-77c-0.9,0-1.7-0.8-1.7-1.7V110.2c0-0.9,0.8-1.7,1.7-1.7h77c0.9,0,1.7,0.8,1.7,1.7v367.5
		C346.3,478.7,345.6,479.4,344.6,479.4z"/>
	<path class="st3" d="M247.5,473.9l-50.9,5.5c-0.9,0.1-1.8-0.6-1.9-1.5L151,74.9c-0.1-0.9,0.6-1.8,1.5-1.9l50.9-5.5
		c0.9-0.1,1.8,0.6,1.9,1.5L249,472C249.1,472.9,248.4,473.8,247.5,473.9z"/>
	<path class="st4" d="M486.5,479.4H376.4c-0.9,0-1.7-0.8-1.7-1.7V66.6c0-0.9,0.8-1.7,1.7-1.7h110.1c0.9,0,1.7,0.8,1.7,1.7v411.1
		C488.2,478.7,487.5,479.4,486.5,479.4z"/>
</g>
<g>
	<path class="st5" d="M554.8,479.3V90.1h173.3c23.5,0,43.8,8.6,60.7,25.7s25.4,37.5,25.4,61v43.1c0,23.5-8.5,43.8-25.4,61
		c-17,17.1-37.2,25.7-60.7,25.7h-86.7v172.8h-86.6V479.3z M641.4,262.9h43.1c12.1,0,22.4-4.2,30.9-12.7c8.5-8.5,12.7-18.6,12.7-30.4
		v-43.1c0-12.1-4.2-22.4-12.7-30.9s-18.8-12.7-30.9-12.7h-43.1V262.9z"/>
	<path class="st5" d="M900.9,479.3V90.1h216.4v43.1H987.6v129.7h86.7v43.6h-86.7v129.7h129.7v43.1L900.9,479.3L900.9,479.3z"/>
	<path class="st5" d="M1333.2,262.9h129.7v129.7c0,29.1-9.2,50.8-27.5,65.1c-18.3,14.4-37.9,21.5-58.6,21.5h-86.7
		c-23.5,0-43.8-8.5-61-25.4c-17.1-16.9-25.7-37.4-25.7-61.2V176.8c0-23.5,8.4-43.9,25.2-61c16.8-17.1,37.3-25.7,61.5-25.7h86.7
		c54.3,0,83,28.9,86.1,86.7h-43.1c-3.5-29.1-17.8-43.6-43.1-43.6h-43.6c-11.8,0-21.9,4.2-30.4,12.7s-12.7,18.8-12.7,30.9v215.9
		c0,12.1,4.2,22.4,12.7,30.9s18.6,12.7,30.4,12.7c27.7-1.4,42.2-15.9,43.6-43.6v-86.1h-43.6L1333.2,262.9L1333.2,262.9z"/>
	<path class="st5" d="M1549.6,479.3V90.1h20.2l184.7,184.2l184.2-184.2h43.6v389.2h-86.7V241.7l-151.5,151.5l-151-151.5v237.7h-43.5
		V479.3z"/>
	<path class="st5" d="M2068.5,479.3V176.8c0-23.9,8.6-44.3,25.7-61.2c17.1-16.9,37.4-25.4,61-25.4h86.7c23.5,0,43.8,8.6,60.7,25.7
		s25.4,37.5,25.4,61v302.5h-86.1V306.5h-86.7v172.8H2068.5z M2155.2,262.9h86.7v-86.1c0-12.1-4.2-22.4-12.7-30.9
		s-18.8-12.7-30.9-12.7c-11.8,0-21.9,4.2-30.4,12.7s-12.7,18.8-12.7,30.9L2155.2,262.9L2155.2,262.9z"/>
</g>
<rect x="-727" y="345" class="st0" width="102" height="5"/>
<rect x="-727" y="58" class="st0" width="102" height="5"/>
</svg>
