<?xml version="1.0" encoding="utf-8"?>
<!-- Generator: Adobe Illustrator 21.0.0, SVG Export Plug-In . SVG Version: 6.00 Build 0)  -->
<svg version="1.1" id="Layer_1" xmlns="http://www.w3.org/2000/svg" xmlns:xlink="http://www.w3.org/1999/xlink" x="0px" y="0px"
	 viewBox="0 0 512 512" style="enable-background:new 0 0 512 512;" xml:space="preserve">
<style type="text/css">
	.st0{display:none;fill:#FFC943;}
	.st1{fill:#C60034;}
	.st2{fill:#0B9CCC;}
	.st3{fill:#00C692;}
	.st4{fill:#FF8943;}
	.st5{fill:#222221;}
</style>
<rect x="721" class="st0" width="512" height="512"/>
<g>
	<path class="st1" d="M883.7,384h-89.2c-0.8,0-1.4-0.6-1.4-1.4V21.4c0-0.8,0.6-1.4,1.4-1.4h89.2c0.8,0,1.4,0.6,1.4,1.4v361.3
		C885,383.4,884.4,384,883.7,384z"/>
	<path class="st2" d="M1044.6,384h-62.4c-0.8,0-1.4-0.6-1.4-1.4V85c0-0.8,0.6-1.4,1.4-1.4h62.4c0.8,0,1.4,0.6,1.4,1.4v297.6
		C1046,383.4,1045.4,384,1044.6,384z"/>
	<path class="st3" d="M965.9,379.5l-41.3,4.5c-0.8,0.1-1.4-0.5-1.5-1.2L887.7,56.4c-0.1-0.8,0.5-1.4,1.2-1.5l41.3-4.5
		c0.8-0.1,1.4,0.5,1.5,1.2L967.1,378C967.2,378.8,966.7,379.4,965.9,379.5z"/>
	<path class="st4" d="M1159.5,384h-89.2c-0.8,0-1.4-0.6-1.4-1.4v-333c0-0.8,0.6-1.4,1.4-1.4h89.2c0.8,0,1.4,0.6,1.4,1.4v333
		C1160.9,383.4,1160.3,384,1159.5,384z"/>
</g>
<g>
	<path class="st5" d="M791.8,491v-81.3H828c4.9,0,9.1,1.8,12.7,5.4c3.5,3.6,5.3,7.8,5.3,12.7v9c0,4.9-1.8,9.2-5.3,12.7
		c-3.5,3.6-7.8,5.4-12.7,5.4h-18.1V491H791.8z M809.9,445.8h9c2.5,0,4.7-0.9,6.5-2.7c1.8-1.8,2.7-3.9,2.7-6.3v-9
		c0-2.5-0.9-4.7-2.7-6.4c-1.8-1.8-3.9-2.7-6.5-2.7h-9V445.8z"/>
	<path class="st5" d="M864.1,491v-81.3h45.2v9h-27.1v27.1h18.1v9.1h-18.1V482h27.1v9H864.1z"/>
	<path class="st5" d="M954.4,445.8h27.1v27.1c0,6.1-1.9,10.6-5.7,13.6c-3.8,3-7.9,4.5-12.3,4.5h-18.1c-4.9,0-9.2-1.8-12.7-5.3
		c-3.6-3.5-5.4-7.8-5.4-12.8v-45.1c0-4.9,1.8-9.2,5.3-12.7c3.5-3.6,7.8-5.4,12.8-5.4h18.1c11.3,0,17.3,6,18,18.1h-9
		c-0.7-6.1-3.7-9.1-9-9.1h-9.1c-2.5,0-4.6,0.9-6.3,2.7c-1.8,1.8-2.7,3.9-2.7,6.4v45.1c0,2.5,0.9,4.7,2.7,6.4
		c1.8,1.8,3.9,2.7,6.3,2.7c5.8-0.3,8.8-3.3,9.1-9.1v-18h-9.1V445.8z"/>
	<path class="st5" d="M999.6,491v-81.3h4.2l38.6,38.5l38.5-38.5h9.1V491h-18.1v-49.6l-31.7,31.7l-31.5-31.7V491H999.6z"/>
	<path class="st5" d="M1108,491v-63.2c0-5,1.8-9.3,5.4-12.8c3.6-3.5,7.8-5.3,12.7-5.3h18.1c4.9,0,9.1,1.8,12.7,5.4
		c3.5,3.6,5.3,7.8,5.3,12.7V491h-18v-36.1h-18.1V491H1108z M1126.1,445.8h18.1v-18c0-2.5-0.9-4.7-2.7-6.4c-1.8-1.8-3.9-2.7-6.5-2.7
		c-2.5,0-4.6,0.9-6.3,2.7c-1.8,1.8-2.7,3.9-2.7,6.4V445.8z"/>
</g>
<g>
	<path class="st1" d="M181.4,327.1H110c-0.6,0-1.1-0.5-1.1-1.1V37.1c0-0.6,0.5-1.1,1.1-1.1h71.3c0.6,0,1.1,0.5,1.1,1.1V326
		C182.5,326.6,182,327.1,181.4,327.1z"/>
	<path class="st2" d="M310,327.1h-49.9c-0.6,0-1.1-0.5-1.1-1.1V88c0-0.6,0.5-1.1,1.1-1.1H310c0.6,0,1.1,0.5,1.1,1.1v238
		C311.1,326.6,310.7,327.1,310,327.1z"/>
	<path class="st3" d="M247.1,323.5l-33,3.6c-0.6,0.1-1.1-0.4-1.2-1l-28.3-261c-0.1-0.6,0.4-1.1,1-1.2l33-3.6c0.6-0.1,1.1,0.4,1.2,1
		l28.3,261C248.2,322.9,247.7,323.4,247.1,323.5z"/>
	<path class="st4" d="M402,327.1h-71.3c-0.6,0-1.1-0.5-1.1-1.1V59.7c0-0.6,0.5-1.1,1.1-1.1H402c0.6,0,1.1,0.5,1.1,1.1V326
		C403.1,326.6,402.6,327.1,402,327.1z"/>
</g>
<g>
	<path class="st5" d="M5.8,475V365.2h48.9c6.6,0,12.3,2.4,17.1,7.2c4.8,4.8,7.2,10.6,7.2,17.2v12.2c0,6.6-2.4,12.4-7.2,17.2
		c-4.8,4.8-10.5,7.2-17.1,7.2H30.3V475H5.8z M30.3,413.9h12.2c3.4,0,6.3-1.2,8.7-3.6c2.4-2.4,3.6-5.2,3.6-8.6v-12.2
		c0-3.4-1.2-6.3-3.6-8.7c-2.4-2.4-5.3-3.6-8.7-3.6H30.3V413.9z"/>
	<path class="st5" d="M103.5,475V365.2h61.1v12.2H128v36.6h24.5v12.3H128v36.6h36.6V475H103.5z"/>
	<path class="st5" d="M225.5,413.9h36.6v36.6c0,8.2-2.6,14.3-7.8,18.4c-5.2,4.1-10.7,6.1-16.5,6.1h-24.5c-6.6,0-12.4-2.4-17.2-7.2
		c-4.8-4.8-7.2-10.5-7.2-17.3v-60.9c0-6.6,2.4-12.4,7.1-17.2c4.7-4.8,10.5-7.2,17.4-7.2h24.5c15.3,0,23.4,8.2,24.3,24.5h-12.2
		c-1-8.2-5-12.3-12.2-12.3h-12.3c-3.3,0-6.2,1.2-8.6,3.6c-2.4,2.4-3.6,5.3-3.6,8.7v60.9c0,3.4,1.2,6.3,3.6,8.7
		c2.4,2.4,5.2,3.6,8.6,3.6c7.8-0.4,11.9-4.5,12.3-12.3v-24.3h-12.3V413.9z"/>
	<path class="st5" d="M286.5,475V365.2h5.7l52.1,52l52-52h12.3V475h-24.5v-67.1l-42.8,42.8l-42.6-42.8V475H286.5z"/>
	<path class="st5" d="M432.9,475v-85.4c0-6.7,2.4-12.5,7.2-17.3c4.8-4.8,10.6-7.2,17.2-7.2h24.5c6.6,0,12.3,2.4,17.1,7.2
		c4.8,4.8,7.2,10.6,7.2,17.2V475h-24.3v-48.8h-24.5V475H432.9z M457.4,413.9h24.5v-24.3c0-3.4-1.2-6.3-3.6-8.7
		c-2.4-2.4-5.3-3.6-8.7-3.6c-3.3,0-6.2,1.2-8.6,3.6c-2.4,2.4-3.6,5.3-3.6,8.7V413.9z"/>
</g>
<g>
	<path class="st1" d="M858.3-167H751.7c-0.9,0-1.6-0.7-1.6-1.6v-431.7c0-0.9,0.7-1.6,1.6-1.6h106.6c0.9,0,1.6,0.7,1.6,1.6v431.7
		C860-167.7,859.2-167,858.3-167z"/>
	<path class="st2" d="M1050.7-167h-74.6c-0.9,0-1.6-0.7-1.6-1.6v-355.7c0-0.9,0.7-1.6,1.6-1.6h74.6c0.9,0,1.6,0.7,1.6,1.6v355.7
		C1052.3-167.7,1051.6-167,1050.7-167z"/>
	<path class="st3" d="M956.6-172.4l-49.3,5.4c-0.9,0.1-1.7-0.6-1.8-1.5l-42.3-390c-0.1-0.9,0.6-1.7,1.5-1.8l49.3-5.4
		c0.9-0.1,1.7,0.6,1.8,1.5l42.3,390C958.2-173.3,957.5-172.5,956.6-172.4z"/>
	<path class="st4" d="M1188-167h-106.6c-0.9,0-1.6-0.7-1.6-1.6v-397.9c0-0.9,0.7-1.6,1.6-1.6H1188c0.9,0,1.6,0.7,1.6,1.6v397.9
		C1189.7-167.7,1188.9-167,1188-167z"/>
</g>
<g>
	<path class="st1" d="M1657.9,479.4h-110.1c-0.9,0-1.7-0.8-1.7-1.7v-446c0-0.9,0.8-1.7,1.7-1.7h110.1c0.9,0,1.7,0.8,1.7,1.7v446
		C1659.6,478.7,1658.9,479.4,1657.9,479.4z"/>
	<path class="st2" d="M1856.6,479.4h-77c-0.9,0-1.7-0.8-1.7-1.7V110.2c0-0.9,0.8-1.7,1.7-1.7h77c0.9,0,1.7,0.8,1.7,1.7v367.5
		C1858.3,478.7,1857.6,479.4,1856.6,479.4z"/>
	<path class="st3" d="M1759.5,473.9l-50.9,5.5c-0.9,0.1-1.8-0.6-1.9-1.5l-43.7-403c-0.1-0.9,0.6-1.8,1.5-1.9l50.9-5.5
		c0.9-0.1,1.8,0.6,1.9,1.5l43.7,403C1761.1,472.9,1760.4,473.8,1759.5,473.9z"/>
	<path class="st4" d="M1998.5,479.4h-110.1c-0.9,0-1.7-0.8-1.7-1.7V66.6c0-0.9,0.8-1.7,1.7-1.7h110.1c0.9,0,1.7,0.8,1.7,1.7v411.1
		C2000.2,478.7,1999.5,479.4,1998.5,479.4z"/>
</g>
<g>
	<path class="st5" d="M2066.8,479.3V90.1h173.3c23.5,0,43.8,8.6,60.7,25.7c16.9,17.1,25.4,37.5,25.4,61v43.1
		c0,23.5-8.5,43.8-25.4,61c-17,17.1-37.2,25.7-60.7,25.7h-86.7v172.8H2066.8z M2153.4,262.9h43.1c12.1,0,22.4-4.2,30.9-12.7
		c8.5-8.5,12.7-18.6,12.7-30.4v-43.1c0-12.1-4.2-22.4-12.7-30.9c-8.5-8.5-18.8-12.7-30.9-12.7h-43.1V262.9z"/>
	<path class="st5" d="M2412.9,479.3V90.1h216.4v43.1h-129.7v129.7h86.7v43.6h-86.7v129.7h129.7v43.1H2412.9z"/>
	<path class="st5" d="M2845.2,262.9h129.7v129.7c0,29.1-9.2,50.8-27.5,65.1c-18.3,14.4-37.9,21.5-58.6,21.5h-86.7
		c-23.5,0-43.8-8.5-61-25.4c-17.1-16.9-25.7-37.4-25.7-61.2V176.8c0-23.5,8.4-43.9,25.2-61c16.8-17.1,37.3-25.7,61.5-25.7h86.7
		c54.3,0,83,28.9,86.1,86.7h-43.1c-3.5-29.1-17.8-43.6-43.1-43.6h-43.6c-11.8,0-21.9,4.2-30.4,12.7c-8.5,8.5-12.7,18.8-12.7,30.9
		v215.9c0,12.1,4.2,22.4,12.7,30.9c8.5,8.5,18.6,12.7,30.4,12.7c27.7-1.4,42.2-15.9,43.6-43.6v-86.1h-43.6V262.9z"/>
	<path class="st5" d="M3061.6,479.3V90.1h20.2l184.7,184.2l184.2-184.2h43.6v389.2h-86.7V241.7l-151.5,151.5l-151-151.5v237.7
		H3061.6z"/>
	<path class="st5" d="M3580.5,479.3V176.8c0-23.9,8.6-44.3,25.7-61.2c17.1-16.9,37.4-25.4,61-25.4h86.7c23.5,0,43.8,8.6,60.7,25.7
		c16.9,17.1,25.4,37.5,25.4,61v302.5h-86.1V306.5h-86.7v172.8H3580.5z M3667.2,262.9h86.7v-86.1c0-12.1-4.2-22.4-12.7-30.9
		c-8.5-8.5-18.8-12.7-30.9-12.7c-11.8,0-21.9,4.2-30.4,12.7c-8.5,8.5-12.7,18.8-12.7,30.9V262.9z"/>
</g>
<rect x="785" y="345" class="st0" width="102" height="5"/>
<rect x="785" y="58" class="st0" width="102" height="5"/>
</svg>
